P1
# CREATOR: GIMP PNM Filter Version 1.1
5 5
0010000110011100001100010