P1
# CREATOR: GIMP PNM Filter Version 1.1
3 3
011111110