P1
9 9
0000010000000011000000111000001111100001111110001111100000110000000010
00000000000
