P1
# CREATOR: GIMP PNM Filter Version 1.1
7 7
0000000000011100111110011111000111000001000000000