P1
# CREATOR: GIMP PNM Filter Version 1.1
7 7
0000010000111000111100111110011111000111000000100