P1
# CREATOR: GIMP PNM Filter Version 1.1
7 7
0000000010110001111100011100000110000010000000000