P1
# CREATOR: GIMP PNM Filter Version 1.1
5 5
0011101111111110001100001