P1
# CREATOR: GIMP PNM Filter Version 1.1
9 9
0000000000000000001011100001111111000111111000111110000011110000011110
00000010000