P1
# CREATOR: GIMP PNM Filter Version 1.1
7 7
0010000001111000111101111100111111101110110010000