P1
3 3
0 1 0
1 1 1
1 1 1
