P1
# CREATOR: GIMP PNM Filter Version 1.1
5 5
0011001110111110111101100