P1
# CREATOR: GIMP PNM Filter Version 1.1
5 5
0110011100110101111001111