P1
# CREATOR: GIMP PNM Filter Version 1.1
5 5
0000001110011100011100110